<svg width="725" height="726" viewBox="0 0 725 726" fill="none" xmlns="http://www.w3.org/2000/svg">
<path d="M48.3938 677.541C-51.4566 577.551 8.20111 355.117 181.389 181.687C354.577 8.25656 576.701 -51.4843 676.551 48.5056C776.402 148.496 716.743 370.929 543.555 544.359C370.376 717.78 148.244 777.531 48.3938 677.541ZM669.789 55.2778C573.667 -40.978 357.61 18.7812 188.17 188.459C18.7287 358.137 -40.9467 574.495 55.1748 670.75C151.296 767.006 367.342 707.255 536.792 537.569C706.242 367.882 765.91 151.534 669.789 55.2778Z" fill="#D4EB9D" fill-opacity="0.4"/>
<path d="M48.3938 677.541C-6.89003 622.18 87.7543 440.658 263.877 264.29C439.999 87.921 621.267 -6.85551 676.551 48.5056C731.835 103.867 637.181 285.378 461.058 461.747C284.945 638.106 103.678 732.902 48.3938 677.541ZM669.789 55.2778C620.012 5.43202 437.236 104.25 270.657 271.062C104.079 437.873 5.39853 620.905 55.1748 670.75C104.942 720.587 287.717 621.768 454.296 454.957C620.874 288.145 719.556 105.115 669.789 55.2778Z" fill="#D4EB9D" fill-opacity="0.4"/>
<path d="M48.3938 677.541C46.5248 675.669 46.5249 672.631 48.3939 670.76L669.779 48.5057C671.649 46.634 674.682 46.634 676.551 48.5056C678.42 50.3772 678.42 53.4152 676.551 55.2868L55.1656 677.541C53.2965 679.412 50.2628 679.412 48.3938 677.541Z" fill="#D4EB9D" fill-opacity="0.3"/>
<path d="M181.393 544.356C8.20995 370.931 -51.4419 148.498 48.4114 48.5056C113.286 -16.4595 234.121 -16.1448 363.795 49.3147C366.143 50.49 367.091 53.3743 365.917 55.7613C364.725 58.1121 361.854 59.0705 359.479 57.886C233.643 -5.64766 117.042 -6.64054 55.1919 55.2955C-40.9324 151.554 18.7376 367.911 188.174 537.583C357.61 707.256 573.664 767.009 669.788 670.751C731.638 608.815 730.637 492.06 667.201 366.039C666.01 363.67 666.958 360.785 669.323 359.592C671.698 358.407 674.56 359.339 675.761 361.716C741.12 491.58 741.434 612.585 676.569 677.541C576.697 777.516 354.576 717.781 181.393 544.356Z" fill="#D4EB9D" fill-opacity="0.4"/>
</svg>
