<svg width="224" height="61" viewBox="0 0 224 61" fill="none" xmlns="http://www.w3.org/2000/svg">
<path d="M0.00700599 37.9201C-0.0569683 37.3857 0.324328 36.9007 0.858666 36.8367L35.1853 32.772L43.7527 31.746L71.6816 28.4526C72.216 28.3886 72.7011 28.7699 72.7651 29.3042L73.3443 34.1419C73.4082 34.6762 73.0269 35.1613 72.4926 35.2253L43.6678 38.6259L30.2739 40.23L1.6696 43.6094C1.13524 43.6734 0.650177 43.2921 0.5862 42.7577L0.00700599 37.9201Z" fill="#F95E41"/>
<path d="M16.8399 7.95384C16.5804 7.48237 16.7523 6.88979 17.2237 6.63029L21.4923 4.28084C21.9638 4.02134 22.5564 4.19317 22.8159 4.66463L33.5142 23.5175C33.7737 23.989 33.6019 24.5816 33.1304 24.8411L28.8618 27.1906C28.3904 27.4501 27.7978 27.2782 27.5383 26.8068L16.8399 7.95384ZM36.3903 39.5505C36.1307 39.079 36.3026 38.4864 36.7741 38.2269L41.0427 35.8775C41.5141 35.618 42.1067 35.7898 42.3662 36.2613L43.6678 38.6259L53.3727 56.2572C53.6322 56.7287 53.4603 57.3212 52.9889 57.5807L48.7203 59.9302C48.2488 60.1897 47.6562 60.0179 47.3967 59.5464L37.5561 41.6686L36.3903 39.5505Z" fill="#F95E41"/>
<path d="M56.4732 1.75439C56.9778 1.94144 57.2352 2.50215 57.0482 3.00676L56.2015 5.29086L55.8624 6.19844C52.5113 15.0853 48.4517 23.6241 43.7527 31.746C41.7964 35.1274 39.7292 38.4366 37.5561 41.6686C34.7898 45.783 31.852 49.7722 28.7529 53.626C28.4467 54.0068 27.8837 54.0506 27.5205 53.7238L23.713 50.2987C23.3751 49.9948 23.3345 49.4797 23.6187 49.1251C25.9329 46.2371 28.1528 43.2705 30.2739 40.23C31.9754 37.7908 33.6134 35.304 35.1853 32.772C41.0038 23.3998 45.9177 13.4085 49.8055 2.92016L50.6525 0.635913C50.8396 0.13136 51.4003 -0.126019 51.9049 0.0610166L56.4732 1.75439Z" fill="#F95E41"/>
<path d="M94.8299 37.0256L83.2397 19.9946V19.3113H85.7703L97.3858 36.3424V37.0256H94.8299ZM83.2397 37.0256V19.3113H85.7703V37.0256H83.2397ZM94.8299 37.0256V19.3113H97.3858V37.0256H94.8299ZM106.191 37.3799C104.925 37.3799 103.804 37.1016 102.825 36.5448C101.863 35.9712 101.113 35.1783 100.573 34.166C100.033 33.1538 99.763 31.9813 99.763 30.6485C99.763 29.3157 100.025 28.1516 100.548 27.1562C101.087 26.144 101.83 25.3595 102.774 24.8028C103.736 24.2291 104.841 23.9423 106.09 23.9423C107.321 23.9423 108.392 24.2291 109.303 24.8028C110.231 25.3764 110.948 26.1862 111.454 27.2321C111.977 28.2613 112.239 29.4675 112.239 30.8509V31.2305L111.859 31.6101H101.054V29.3832H111.024L109.734 29.8893C109.7 29.1301 109.514 28.4806 109.177 27.9407C108.856 27.4009 108.426 26.9875 107.886 26.7007C107.363 26.397 106.773 26.2452 106.115 26.2452C105.406 26.2452 104.757 26.4139 104.166 26.7513C103.576 27.0887 103.112 27.5611 102.774 28.1685C102.454 28.759 102.294 29.4507 102.294 30.2436V31.0028C102.294 31.7788 102.462 32.479 102.8 33.1032C103.137 33.7105 103.601 34.1913 104.192 34.5456C104.782 34.8999 105.448 35.0771 106.191 35.0771C106.899 35.0771 107.524 34.8999 108.063 34.5456C108.62 34.1745 109.059 33.6852 109.379 33.0779H109.683L111.733 33.9636C111.244 35.0264 110.518 35.8616 109.557 36.4689C108.595 37.0762 107.473 37.3799 106.191 37.3799ZM125.887 24.2966V37.0256H123.483V33.6093L124.167 33.8118C123.914 34.5372 123.534 35.1698 123.028 35.7097C122.522 36.2327 121.923 36.646 121.231 36.9497C120.556 37.2365 119.822 37.3799 119.03 37.3799C118.135 37.3799 117.326 37.1859 116.6 36.7979C115.875 36.393 115.301 35.8109 114.879 35.0518C114.458 34.2757 114.247 33.3225 114.247 32.1922V24.2966H116.777V31.4836C116.777 32.3271 116.895 33.0104 117.132 33.5334C117.385 34.0564 117.73 34.436 118.169 34.6722C118.608 34.8915 119.114 35.0011 119.687 35.0011C120.261 35.0011 120.826 34.8577 121.383 34.5709C121.957 34.2841 122.429 33.8371 122.8 33.2297C123.171 32.6224 123.357 31.8379 123.357 30.8762V24.2966H125.887ZM128.695 37.0256V24.2966H131.099V27.713L130.416 27.4852C130.753 26.5067 131.327 25.7306 132.137 25.157C132.963 24.5834 133.908 24.2966 134.971 24.2966H136.211V26.6248H134.566C133.891 26.6248 133.301 26.7851 132.794 27.1056C132.305 27.4093 131.917 27.8395 131.63 28.3962C131.36 28.953 131.226 29.6109 131.226 30.3701V37.0256H128.695ZM141.033 37.3799C140.173 37.3799 139.397 37.2112 138.705 36.8738C138.03 36.5364 137.499 36.0724 137.111 35.482C136.723 34.8746 136.529 34.1829 136.529 33.4069C136.529 32.2428 136.934 31.3149 137.743 30.6232C138.553 29.9146 139.7 29.5013 141.185 29.3832L146.094 28.9783V31.1546L141.615 31.5089C140.755 31.5764 140.122 31.762 139.717 32.0656C139.312 32.3693 139.11 32.7826 139.11 33.3056C139.11 33.8118 139.329 34.2335 139.768 34.5709C140.207 34.8915 140.763 35.0518 141.438 35.0518C142.147 35.0518 142.788 34.883 143.361 34.5456C143.952 34.2082 144.416 33.7611 144.753 33.2044C145.091 32.6308 145.259 32.015 145.259 31.3571V29.2819C145.259 28.3878 144.973 27.6539 144.399 27.0803C143.842 26.5067 143.1 26.2199 142.172 26.2199C141.396 26.2199 140.746 26.4055 140.223 26.7766C139.717 27.1478 139.38 27.637 139.211 28.2444H138.933L136.756 27.637C137.094 26.5067 137.735 25.6041 138.68 24.9293C139.625 24.2545 140.789 23.917 142.172 23.917C143.943 23.917 145.318 24.44 146.297 25.486C147.275 26.5151 147.765 27.966 147.765 29.8387V37.0256H145.437V33.3309L146.348 33.6093C146.145 34.301 145.782 34.9337 145.259 35.5073C144.753 36.0809 144.137 36.5364 143.412 36.8738C142.687 37.2112 141.894 37.3799 141.033 37.3799ZM150.842 37.0256V18.8052L153.296 18.5015L153.372 18.704V37.0256H150.842ZM168.029 37.0256L161.627 19.8427L161.475 19.3113H164.006L170.737 36.8232V37.0256H168.029ZM154.744 37.0256V36.8232L161.475 19.3113H164.006L163.803 19.8427L157.401 37.0256H154.744ZM157.527 32.6477L158.286 30.2183H167.422L168.181 32.6477H157.527ZM171.969 37.0256V24.2966H174.374V27.713L173.69 27.4852C174.028 26.5067 174.601 25.7306 175.411 25.157C176.238 24.5834 177.182 24.2966 178.245 24.2966H179.485V26.6248H177.84C177.166 26.6248 176.575 26.7851 176.069 27.1056C175.58 27.4093 175.192 27.8395 174.905 28.3962C174.635 28.953 174.5 29.6109 174.5 30.3701V37.0256H171.969ZM186.155 37.3799C184.873 37.3799 183.743 37.1016 182.764 36.5448C181.786 35.9712 181.018 35.1783 180.461 34.166C179.921 33.1538 179.651 31.9813 179.651 30.6485C179.651 29.3157 179.921 28.1516 180.461 27.1562C181.018 26.144 181.786 25.3595 182.764 24.8028C183.743 24.2291 184.873 23.9423 186.155 23.9423C187.15 23.9423 188.036 24.1111 188.812 24.4485C189.605 24.7859 190.28 25.2836 190.837 25.9415C191.393 26.5826 191.807 27.3755 192.077 28.3203L189.926 28.9277H189.647C189.377 28.101 188.922 27.4515 188.281 26.9791C187.657 26.5067 186.948 26.2705 186.155 26.2705C185.345 26.2705 184.645 26.4561 184.055 26.8272C183.464 27.1984 183 27.713 182.663 28.3709C182.342 29.012 182.182 29.7712 182.182 30.6485C182.182 31.5258 182.342 32.2934 182.663 32.9513C183 33.6093 183.464 34.1239 184.055 34.495C184.645 34.8493 185.345 35.0264 186.155 35.0264C186.729 35.0264 187.252 34.9252 187.724 34.7228C188.196 34.5203 188.601 34.2251 188.939 33.8371C189.293 33.4322 189.563 32.9513 189.749 32.3946H190.027L192.203 33.002C191.9 33.9467 191.461 34.7481 190.887 35.406C190.314 36.064 189.63 36.5617 188.838 36.8991C188.062 37.2196 187.167 37.3799 186.155 37.3799Z" fill="#004116"/>
<path d="M193.276 20.0256V14.4256H193.876V20.0256H193.276ZM191.516 15.0096V14.4256H195.628V15.0096H191.516ZM198.84 20.0256L198.848 19.8576L201.168 14.4256H201.736V14.5936L199.416 20.0256H198.84ZM196.312 20.0256V14.4256H196.912V20.0256H196.312ZM198.848 20.0256L196.52 14.5936V14.4256H197.096L199.416 19.8576V20.0256H198.848ZM201.344 20.0256V14.4256H201.944V20.0256H201.344Z" fill="#004116"/>
</svg>
